<mxfile host="app.diagrams.net" modified="2021-09-18T10:44:28.465Z" agent="5.0 (Windows NT 10.0; Win64; x64) AppleWebKit/537.36 (KHTML, like Gecko) Chrome/93.0.4577.82 Safari/537.36" etag="tfwizU6iQOUTTXyTpz-3" version="15.2.7" type="github">
  <diagram id="s3cTTGMjuupmF-S4N1gy" name="Page-1">
    <mxGraphModel dx="782" dy="379" grid="1" gridSize="10" guides="1" tooltips="1" connect="1" arrows="1" fold="1" page="1" pageScale="1" pageWidth="827" pageHeight="1169" math="0" shadow="0">
      <root>
        <mxCell id="0" />
        <mxCell id="1" parent="0" />
        <mxCell id="nlkqs9mqLiQSFhiLwGQj-3" value="" style="edgeStyle=orthogonalEdgeStyle;rounded=0;orthogonalLoop=1;jettySize=auto;html=1;" edge="1" parent="1" source="nlkqs9mqLiQSFhiLwGQj-1" target="nlkqs9mqLiQSFhiLwGQj-2">
          <mxGeometry relative="1" as="geometry" />
        </mxCell>
        <mxCell id="nlkqs9mqLiQSFhiLwGQj-1" value="Controller" style="shape=umlActor;verticalLabelPosition=bottom;verticalAlign=top;html=1;outlineConnect=0;" vertex="1" parent="1">
          <mxGeometry x="120" y="160" width="35" height="70" as="geometry" />
        </mxCell>
        <mxCell id="nlkqs9mqLiQSFhiLwGQj-2" value="Управлять кондиционером" style="ellipse;whiteSpace=wrap;html=1;verticalAlign=middle;" vertex="1" parent="1">
          <mxGeometry x="77.5" y="15" width="120" height="60" as="geometry" />
        </mxCell>
        <mxCell id="nlkqs9mqLiQSFhiLwGQj-11" value="" style="edgeStyle=orthogonalEdgeStyle;rounded=0;orthogonalLoop=1;jettySize=auto;html=1;" edge="1" parent="1" source="nlkqs9mqLiQSFhiLwGQj-4" target="nlkqs9mqLiQSFhiLwGQj-10">
          <mxGeometry relative="1" as="geometry" />
        </mxCell>
        <mxCell id="nlkqs9mqLiQSFhiLwGQj-4" value="Нажата кнопка включить" style="ellipse;whiteSpace=wrap;html=1;verticalAlign=middle;" vertex="1" parent="1">
          <mxGeometry x="340" y="20" width="120" height="80" as="geometry" />
        </mxCell>
        <mxCell id="nlkqs9mqLiQSFhiLwGQj-13" value="" style="edgeStyle=orthogonalEdgeStyle;rounded=0;orthogonalLoop=1;jettySize=auto;html=1;" edge="1" parent="1" source="nlkqs9mqLiQSFhiLwGQj-5" target="nlkqs9mqLiQSFhiLwGQj-12">
          <mxGeometry relative="1" as="geometry" />
        </mxCell>
        <mxCell id="nlkqs9mqLiQSFhiLwGQj-5" value="Нажата кнопка выключить" style="ellipse;whiteSpace=wrap;html=1;verticalAlign=middle;" vertex="1" parent="1">
          <mxGeometry x="340" y="120" width="120" height="80" as="geometry" />
        </mxCell>
        <mxCell id="nlkqs9mqLiQSFhiLwGQj-15" value="" style="edgeStyle=orthogonalEdgeStyle;rounded=0;orthogonalLoop=1;jettySize=auto;html=1;" edge="1" parent="1" source="nlkqs9mqLiQSFhiLwGQj-6" target="nlkqs9mqLiQSFhiLwGQj-14">
          <mxGeometry relative="1" as="geometry" />
        </mxCell>
        <mxCell id="nlkqs9mqLiQSFhiLwGQj-6" value="Нажата кнопка задать температуру" style="ellipse;whiteSpace=wrap;html=1;verticalAlign=middle;" vertex="1" parent="1">
          <mxGeometry x="340" y="230" width="120" height="80" as="geometry" />
        </mxCell>
        <mxCell id="nlkqs9mqLiQSFhiLwGQj-7" value="" style="endArrow=block;dashed=1;endFill=0;endSize=12;html=1;exitX=0;exitY=0.5;exitDx=0;exitDy=0;entryX=1;entryY=0.3333333333333333;entryDx=0;entryDy=0;entryPerimeter=0;" edge="1" parent="1" source="nlkqs9mqLiQSFhiLwGQj-4" target="nlkqs9mqLiQSFhiLwGQj-1">
          <mxGeometry width="160" relative="1" as="geometry">
            <mxPoint x="340" y="170" as="sourcePoint" />
            <mxPoint x="500" y="170" as="targetPoint" />
          </mxGeometry>
        </mxCell>
        <mxCell id="nlkqs9mqLiQSFhiLwGQj-8" value="" style="endArrow=block;dashed=1;endFill=0;endSize=12;html=1;exitX=0;exitY=0.5;exitDx=0;exitDy=0;entryX=1;entryY=0.3333333333333333;entryDx=0;entryDy=0;entryPerimeter=0;" edge="1" parent="1" source="nlkqs9mqLiQSFhiLwGQj-5" target="nlkqs9mqLiQSFhiLwGQj-1">
          <mxGeometry width="160" relative="1" as="geometry">
            <mxPoint x="340" y="170" as="sourcePoint" />
            <mxPoint x="160" y="190" as="targetPoint" />
          </mxGeometry>
        </mxCell>
        <mxCell id="nlkqs9mqLiQSFhiLwGQj-9" value="" style="endArrow=block;dashed=1;endFill=0;endSize=12;html=1;exitX=0;exitY=0.5;exitDx=0;exitDy=0;entryX=1;entryY=0.3333333333333333;entryDx=0;entryDy=0;entryPerimeter=0;" edge="1" parent="1" source="nlkqs9mqLiQSFhiLwGQj-6" target="nlkqs9mqLiQSFhiLwGQj-1">
          <mxGeometry width="160" relative="1" as="geometry">
            <mxPoint x="340" y="170" as="sourcePoint" />
            <mxPoint x="500" y="170" as="targetPoint" />
          </mxGeometry>
        </mxCell>
        <mxCell id="nlkqs9mqLiQSFhiLwGQj-10" value="Включить кондиционер" style="ellipse;whiteSpace=wrap;html=1;verticalAlign=middle;" vertex="1" parent="1">
          <mxGeometry x="540" y="20" width="120" height="80" as="geometry" />
        </mxCell>
        <mxCell id="nlkqs9mqLiQSFhiLwGQj-12" value="Выключить кондиционер" style="ellipse;whiteSpace=wrap;html=1;verticalAlign=middle;" vertex="1" parent="1">
          <mxGeometry x="540" y="120" width="120" height="80" as="geometry" />
        </mxCell>
        <mxCell id="nlkqs9mqLiQSFhiLwGQj-14" value="Задать кондиционеру температуру" style="ellipse;whiteSpace=wrap;html=1;verticalAlign=middle;" vertex="1" parent="1">
          <mxGeometry x="540" y="230" width="120" height="80" as="geometry" />
        </mxCell>
      </root>
    </mxGraphModel>
  </diagram>
</mxfile>
